<?xml version="1.0" encoding="utf-8"?><svg xml:space="preserve" viewBox="0 0 100 100" y="0" x="0" xmlns="http://www.w3.org/2000/svg" id="圖層_1" version="1.1" width="200px" height="200px" xmlns:xlink="http://www.w3.org/1999/xlink" style="width:100%;height:100%;background-size:initial;background-repeat-y:initial;background-repeat-x:initial;background-position-y:initial;background-position-x:initial;background-origin:initial;background-color:initial;background-clip:initial;background-attachment:initial;animation-play-state:paused" ><g class="ldl-scale" style="transform-origin:50% 50%;transform:rotate(0deg) scale(0.8, 0.8);animation-play-state:paused" ><path d="M17.7 12.5h-2.3v2.4H17v17.9h2.3V12.5z" fill="#333" style="fill:rgb(51, 51, 51);animation-play-state:paused" ></path>
<path fill="#333" d="M33.8 11.4c-4.6 0-8.4 5-8.4 11.2 0 6.2 3.8 11.2 8.4 11.2s8.4-5 8.4-11.2c0-6.1-3.8-11.2-8.4-11.2zm0 2.1c2 0 3.8 1.4 5 3.5L28 26.3c-.3-1.1-.5-2.3-.5-3.6-.1-5.1 2.8-9.2 6.3-9.2zm0 18.4c-2 0-3.8-1.4-5-3.5L39.6 19c.3 1.1.5 2.4.5 3.7 0 5-2.8 9.2-6.3 9.2z" style="fill:rgb(51, 51, 51);animation-play-state:paused" ></path>
<path d="M49.3 12.5H47v2.4h1.6v17.9h2.3V12.5z" fill="#333" style="fill:rgb(51, 51, 51);animation-play-state:paused" ></path>
<path fill="#333" d="M65.4 11.4c-4.6 0-8.4 5-8.4 11.2 0 6.2 3.8 11.2 8.4 11.2s8.4-5 8.4-11.2c0-6.1-3.8-11.2-8.4-11.2zm0 2.1c2 0 3.8 1.4 5 3.5l-10.8 9.3c-.4-1.1-.6-2.3-.6-3.6 0-5.1 2.9-9.2 6.4-9.2zm0 18.4c-2 0-3.8-1.4-5-3.5L71.2 19c.3 1.1.5 2.4.5 3.7 0 5-2.8 9.2-6.3 9.2z" style="fill:rgb(51, 51, 51);animation-play-state:paused" ></path>
<path d="M80.9 12.5h-2.3v2.4h1.6v17.9h2.3V12.5z" fill="#333" style="fill:rgb(51, 51, 51);animation-play-state:paused" ></path>
<path d="M33.9 39.9h-2.3v2.3h1.6v17.9h2.3V39.9z" fill="#333" style="fill:rgb(51, 51, 51);animation-play-state:paused" ></path>
<path d="M65.5 39.9h-2.3v2.3h1.6v17.9h2.3V39.9z" fill="#333" style="fill:rgb(51, 51, 51);animation-play-state:paused" ></path>
<path d="M17.7 67.2h-2.3v2.3H17v18h2.3V67.2z" fill="#333" style="fill:rgb(51, 51, 51);animation-play-state:paused" ></path>
<path d="M49.3 67.2H47v2.3h1.6v18h2.3V67.2z" fill="#333" style="fill:rgb(51, 51, 51);animation-play-state:paused" ></path>
<path fill="#333" d="M18.4 38.8c-4.6 0-8.4 5-8.4 11.2s3.8 11.2 8.4 11.2 8.4-5 8.4-11.2-3.8-11.2-8.4-11.2zm0 2c2 0 3.8 1.4 5 3.5l-10.8 9.3c-.3-1.1-.5-2.3-.5-3.6 0-5.1 2.8-9.2 6.3-9.2zm0 18.4c-2 0-3.8-1.4-5-3.5l10.8-9.3c.3 1.1.5 2.4.5 3.7 0 5-2.8 9.1-6.3 9.1z" style="fill:rgb(51, 51, 51);animation-play-state:paused" ></path>
<path fill="#333" d="M50 38.8c-4.6 0-8.4 5-8.4 11.2s3.8 11.2 8.4 11.2 8.4-5 8.4-11.2-3.8-11.2-8.4-11.2zm0 2c2 0 3.8 1.4 5 3.5l-10.8 9.3c-.3-1.1-.5-2.3-.5-3.6 0-5.1 2.8-9.2 6.3-9.2zm0 18.4c-2 0-3.8-1.4-5-3.5l10.8-9.3c.3 1.1.5 2.4.5 3.7 0 5-2.8 9.1-6.3 9.1z" style="fill:rgb(51, 51, 51);animation-play-state:paused" ></path>
<path fill="#333" d="M81.6 38.8c-4.6 0-8.4 5-8.4 11.2s3.8 11.2 8.4 11.2S90 56.2 90 50s-3.8-11.2-8.4-11.2zm0 2c2 0 3.8 1.4 5 3.5l-10.8 9.3c-.3-1.1-.5-2.3-.5-3.6 0-5.1 2.8-9.2 6.3-9.2zm0 18.4c-2 0-3.8-1.4-5-3.5l10.8-9.3c.3 1.1.5 2.4.5 3.7 0 5-2.8 9.1-6.3 9.1z" style="fill:rgb(51, 51, 51);animation-play-state:paused" ></path>
<path fill="#333" d="M33.8 66.1c-4.6 0-8.4 5-8.4 11.2s3.8 11.2 8.4 11.2 8.4-5 8.4-11.2-3.8-11.2-8.4-11.2zm0 2c2 0 3.8 1.4 5 3.5L28 81c-.3-1.1-.5-2.3-.5-3.6-.1-5.1 2.8-9.3 6.3-9.3zm0 18.4c-2 0-3.8-1.4-5-3.5l10.8-9.3c.3 1.1.5 2.4.5 3.7 0 5-2.8 9.1-6.3 9.1z" style="fill:rgb(51, 51, 51);animation-play-state:paused" ></path>
<path fill="#333" d="M65.4 66.1c-4.6 0-8.4 5-8.4 11.2s3.8 11.2 8.4 11.2 8.4-5 8.4-11.2-3.8-11.2-8.4-11.2zm0 2c2 0 3.8 1.4 5 3.5L59.6 81c-.3-1.1-.5-2.3-.5-3.6-.1-5.1 2.8-9.3 6.3-9.3zm0 18.4c-2 0-3.8-1.4-5-3.5l10.8-9.3c.3 1.1.5 2.4.5 3.7 0 5-2.8 9.1-6.3 9.1z" style="fill:rgb(51, 51, 51);animation-play-state:paused" ></path>
<path d="M80.9 67.2h-2.3v2.3h1.6v18h2.3V67.2z" fill="#333" style="fill:rgb(51, 51, 51);animation-play-state:paused" ></path>
<metadata xmlns:d="https://loading.io/stock/" style="animation-play-state:paused" ><d:name style="animation-play-state:paused" >data</d:name>
<d:tags style="animation-play-state:paused" >data,bit,byte,kb,mb,machine code,memory,information,storage,database</d:tags>
<d:license style="animation-play-state:paused" >by</d:license>
<d:slug style="animation-play-state:paused" >qn01yo</d:slug></metadata></g><!-- generated by https://loading.io/ --></svg>